<?xml version="1.0" encoding="UTF-8" standalone="no"?>
<!DOCTYPE svg PUBLIC "-//W3C//DTD SVG 1.1//EN"
 "http://www.w3.org/Graphics/SVG/1.1/DTD/svg11.dtd">
<!-- Generated by graphviz version 7.1.0 (20230121.1956)
 -->
<!-- Title: jcolonia.daw2022.fichaDeRol.VistaGeneral Pages: 1 -->
<svg width="340pt" height="237pt"
 viewBox="0.00 0.00 340.00 237.00" xmlns="http://www.w3.org/2000/svg" xmlns:xlink="http://www.w3.org/1999/xlink">
<g id="graph0" class="graph" transform="scale(1 1) rotate(0) translate(4 233)">
<title>jcolonia.daw2022.fichaDeRol.VistaGeneral</title>
<!-- Node1 -->
<g id="node1" class="node">
<title>Node1</title>
<g id="a_node1"><a xlink:title="Gestiona la entrada y salida de informacion por consola.">
<polygon fill="#999999" stroke="#666666" points="0,-0.5 0,-123.5 332,-123.5 332,-0.5 0,-0.5"/>
<text text-anchor="middle" x="166" y="-111.5" font-family="Helvetica,sans-Serif" font-size="10.00">jcolonia.daw2022.fichaDeRol.VistaGeneral</text>
<polyline fill="none" stroke="#666666" points="0,-104.5 332,-104.5"/>
<text text-anchor="start" x="8" y="-92.5" font-family="Helvetica,sans-Serif" font-size="10.00">&#45; static final String TextoPeticion</text>
<polyline fill="none" stroke="#666666" points="0,-85.5 332,-85.5"/>
<text text-anchor="start" x="8" y="-73.5" font-family="Helvetica,sans-Serif" font-size="10.00">+ VistaGeneral()</text>
<text text-anchor="start" x="8" y="-62.5" font-family="Helvetica,sans-Serif" font-size="10.00">+ String cargar()</text>
<text text-anchor="start" x="8" y="-51.5" font-family="Helvetica,sans-Serif" font-size="10.00">+ static Scanner getEntrada()</text>
<text text-anchor="start" x="8" y="-40.5" font-family="Helvetica,sans-Serif" font-size="10.00">+ static int pedirEntero()</text>
<text text-anchor="start" x="8" y="-29.5" font-family="Helvetica,sans-Serif" font-size="10.00">+ static int pedirEntero(String pregunta)</text>
<text text-anchor="start" x="8" y="-18.5" font-family="Helvetica,sans-Serif" font-size="10.00">+ static int pedirEntero(String pregunta, int valorMinimo, int valorMaximo)</text>
<text text-anchor="start" x="8" y="-7.5" font-family="Helvetica,sans-Serif" font-size="10.00">+ static int pedirEnteroAlt(int valorMinimo, int valorMaximo)</text>
</a>
</g>
</g>
<!-- Node2 -->
<g id="node2" class="node">
<title>Node2</title>
<g id="a_node2"><a xlink:title=" ">
<polygon fill="white" stroke="#bfbfbf" points="139.5,-171.5 139.5,-228.5 192.5,-228.5 192.5,-171.5 139.5,-171.5"/>
<text text-anchor="middle" x="166" y="-216.5" font-family="Helvetica,sans-Serif" font-size="10.00">Scanner</text>
<polyline fill="none" stroke="#bfbfbf" points="139.5,-209.5 192.5,-209.5"/>
<text text-anchor="middle" x="166" y="-197.5" font-family="Helvetica,sans-Serif" font-size="10.00"> </text>
<polyline fill="none" stroke="#bfbfbf" points="139.5,-190.5 192.5,-190.5"/>
<text text-anchor="middle" x="166" y="-178.5" font-family="Helvetica,sans-Serif" font-size="10.00"> </text>
</a>
</g>
</g>
<!-- Node2&#45;&gt;Node1 -->
<g id="edge1" class="edge">
<title>Node2&#45;&gt;Node1</title>
<path fill="none" stroke="#404040" d="M166,-171.81C166,-161.34 166,-148.83 166,-136.08"/>
<polygon fill="none" stroke="#404040" points="166,-136.22 162,-130.22 166,-124.22 170,-130.22 166,-136.22"/>
<text text-anchor="middle" x="185.5" y="-145" font-family="Helvetica,sans-Serif" font-size="10.00"> &#45;entrada</text>
</g>
</g>
</svg>
