<?xml version="1.0" encoding="UTF-8" standalone="no"?>
<!DOCTYPE svg PUBLIC "-//W3C//DTD SVG 1.1//EN"
 "http://www.w3.org/Graphics/SVG/1.1/DTD/svg11.dtd">
<!-- Generated by graphviz version 7.1.0 (20230121.1956)
 -->
<!-- Title: jcolonia.daw2022.fichaDeRol.VistaGeneralException Pages: 1 -->
<svg width="537pt" height="204pt"
 viewBox="0.00 0.00 537.00 204.00" xmlns="http://www.w3.org/2000/svg" xmlns:xlink="http://www.w3.org/1999/xlink">
<g id="graph0" class="graph" transform="scale(1 1) rotate(0) translate(4 200)">
<title>jcolonia.daw2022.fichaDeRol.VistaGeneralException</title>
<!-- Node1 -->
<g id="node1" class="node">
<title>Node1</title>
<g id="a_node1"><a xlink:title=" ">
<polygon fill="#999999" stroke="#666666" points="0,-0.5 0,-101.5 529,-101.5 529,-0.5 0,-0.5"/>
<text text-anchor="middle" x="264.5" y="-89.5" font-family="Helvetica,sans-Serif" font-size="10.00">jcolonia.daw2022.fichaDeRol.VistaGeneralException</text>
<polyline fill="none" stroke="#666666" points="0,-82.5 529,-82.5"/>
<text text-anchor="start" x="8" y="-70.5" font-family="Helvetica,sans-Serif" font-size="10.00">&#45; static final long serialVersionUID</text>
<polyline fill="none" stroke="#666666" points="0,-63.5 529,-63.5"/>
<text text-anchor="start" x="8" y="-51.5" font-family="Helvetica,sans-Serif" font-size="10.00">+ VistaGeneralException()</text>
<text text-anchor="start" x="8" y="-40.5" font-family="Helvetica,sans-Serif" font-size="10.00">+ VistaGeneralException(String message)</text>
<text text-anchor="start" x="8" y="-29.5" font-family="Helvetica,sans-Serif" font-size="10.00">+ VistaGeneralException(Throwable cause)</text>
<text text-anchor="start" x="8" y="-18.5" font-family="Helvetica,sans-Serif" font-size="10.00">+ VistaGeneralException(String message, Throwable cause)</text>
<text text-anchor="start" x="8" y="-7.5" font-family="Helvetica,sans-Serif" font-size="10.00">+ VistaGeneralException(String message, Throwable cause, boolean enableSuppression, boolean writableStackTrace)</text>
</a>
</g>
</g>
<!-- Node2 -->
<g id="node2" class="node">
<title>Node2</title>
<g id="a_node2"><a xlink:title=" ">
<polygon fill="white" stroke="#bfbfbf" points="234.5,-138.5 234.5,-195.5 294.5,-195.5 294.5,-138.5 234.5,-138.5"/>
<text text-anchor="middle" x="264.5" y="-183.5" font-family="Helvetica,sans-Serif" font-size="10.00">Exception</text>
<polyline fill="none" stroke="#bfbfbf" points="234.5,-176.5 294.5,-176.5"/>
<text text-anchor="middle" x="264.5" y="-164.5" font-family="Helvetica,sans-Serif" font-size="10.00"> </text>
<polyline fill="none" stroke="#bfbfbf" points="234.5,-157.5 294.5,-157.5"/>
<text text-anchor="middle" x="264.5" y="-145.5" font-family="Helvetica,sans-Serif" font-size="10.00"> </text>
</a>
</g>
</g>
<!-- Node2&#45;&gt;Node1 -->
<g id="edge1" class="edge">
<title>Node2&#45;&gt;Node1</title>
<path fill="none" stroke="#63b8ff" d="M264.5,-127.37C264.5,-119.02 264.5,-110.08 264.5,-101.38"/>
<polygon fill="none" stroke="#63b8ff" points="261,-127.18 264.5,-137.18 268,-127.18 261,-127.18"/>
</g>
</g>
</svg>
