<?xml version="1.0" encoding="UTF-8" standalone="no"?>
<!DOCTYPE svg PUBLIC "-//W3C//DTD SVG 1.1//EN"
 "http://www.w3.org/Graphics/SVG/1.1/DTD/svg11.dtd">
<!-- Generated by graphviz version 7.1.0 (20230121.1956)
 -->
<!-- Title: jcolonia.daw2022.fichaDeRol.VistaMenu Pages: 1 -->
<svg width="458pt" height="364pt"
 viewBox="0.00 0.00 457.50 364.00" xmlns="http://www.w3.org/2000/svg" xmlns:xlink="http://www.w3.org/1999/xlink">
<g id="graph0" class="graph" transform="scale(1 1) rotate(0) translate(4 360)">
<title>jcolonia.daw2022.fichaDeRol.VistaMenu</title>
<!-- Node1 -->
<g id="node1" class="node">
<title>Node1</title>
<g id="a_node1"><a xlink:title="Gestiona el menu principal.">
<polygon fill="#999999" stroke="#666666" points="161,-0.5 161,-79.5 403,-79.5 403,-0.5 161,-0.5"/>
<text text-anchor="middle" x="282" y="-67.5" font-family="Helvetica,sans-Serif" font-size="10.00">jcolonia.daw2022.fichaDeRol.VistaMenu</text>
<polyline fill="none" stroke="#666666" points="161,-60.5 403,-60.5"/>
<text text-anchor="middle" x="282" y="-48.5" font-family="Helvetica,sans-Serif" font-size="10.00"> </text>
<polyline fill="none" stroke="#666666" points="161,-41.5 403,-41.5"/>
<text text-anchor="start" x="169" y="-29.5" font-family="Helvetica,sans-Serif" font-size="10.00">+ void mostrarOpciones()</text>
<text text-anchor="start" x="169" y="-18.5" font-family="Helvetica,sans-Serif" font-size="10.00">+ int pedirOpcion()</text>
<text text-anchor="start" x="169" y="-7.5" font-family="Helvetica,sans-Serif" font-size="10.00">~ public&lt; T &gt; VistaMenu(T[] opcionesMenuEjemplo)</text>
</a>
</g>
</g>
<!-- Node2 -->
<g id="node2" class="node">
<title>Node2</title>
<g id="a_node2"><a xlink:href="classjcolonia_1_1daw2022_1_1fichaDeRol_1_1VistaGeneral.html" target="_top" xlink:title="Gestiona la entrada y salida de informacion por consola.">
<polygon fill="white" stroke="#666666" points="0,-127.5 0,-250.5 332,-250.5 332,-127.5 0,-127.5"/>
<text text-anchor="middle" x="166" y="-238.5" font-family="Helvetica,sans-Serif" font-size="10.00">jcolonia.daw2022.fichaDeRol.VistaGeneral</text>
<polyline fill="none" stroke="#666666" points="0,-231.5 332,-231.5"/>
<text text-anchor="start" x="8" y="-219.5" font-family="Helvetica,sans-Serif" font-size="10.00">&#45; static final String TextoPeticion</text>
<polyline fill="none" stroke="#666666" points="0,-212.5 332,-212.5"/>
<text text-anchor="start" x="8" y="-200.5" font-family="Helvetica,sans-Serif" font-size="10.00">+ VistaGeneral()</text>
<text text-anchor="start" x="8" y="-189.5" font-family="Helvetica,sans-Serif" font-size="10.00">+ String cargar()</text>
<text text-anchor="start" x="8" y="-178.5" font-family="Helvetica,sans-Serif" font-size="10.00">+ static Scanner getEntrada()</text>
<text text-anchor="start" x="8" y="-167.5" font-family="Helvetica,sans-Serif" font-size="10.00">+ static int pedirEntero()</text>
<text text-anchor="start" x="8" y="-156.5" font-family="Helvetica,sans-Serif" font-size="10.00">+ static int pedirEntero(String pregunta)</text>
<text text-anchor="start" x="8" y="-145.5" font-family="Helvetica,sans-Serif" font-size="10.00">+ static int pedirEntero(String pregunta, int valorMinimo, int valorMaximo)</text>
<text text-anchor="start" x="8" y="-134.5" font-family="Helvetica,sans-Serif" font-size="10.00">+ static int pedirEnteroAlt(int valorMinimo, int valorMaximo)</text>
</a>
</g>
</g>
<!-- Node2&#45;&gt;Node1 -->
<g id="edge1" class="edge">
<title>Node2&#45;&gt;Node1</title>
<path fill="none" stroke="#63b8ff" d="M220.52,-118.91C231.23,-105.34 242.1,-91.56 251.67,-79.44"/>
<polygon fill="none" stroke="#63b8ff" points="217.9,-116.58 214.45,-126.6 223.4,-120.92 217.9,-116.58"/>
</g>
<!-- Node3 -->
<g id="node3" class="node">
<title>Node3</title>
<g id="a_node3"><a xlink:title=" ">
<polygon fill="white" stroke="#bfbfbf" points="139.5,-298.5 139.5,-355.5 192.5,-355.5 192.5,-298.5 139.5,-298.5"/>
<text text-anchor="middle" x="166" y="-343.5" font-family="Helvetica,sans-Serif" font-size="10.00">Scanner</text>
<polyline fill="none" stroke="#bfbfbf" points="139.5,-336.5 192.5,-336.5"/>
<text text-anchor="middle" x="166" y="-324.5" font-family="Helvetica,sans-Serif" font-size="10.00"> </text>
<polyline fill="none" stroke="#bfbfbf" points="139.5,-317.5 192.5,-317.5"/>
<text text-anchor="middle" x="166" y="-305.5" font-family="Helvetica,sans-Serif" font-size="10.00"> </text>
</a>
</g>
</g>
<!-- Node3&#45;&gt;Node2 -->
<g id="edge2" class="edge">
<title>Node3&#45;&gt;Node2</title>
<path fill="none" stroke="#404040" d="M166,-298.81C166,-288.34 166,-275.83 166,-263.08"/>
<polygon fill="none" stroke="#404040" points="166,-263.22 162,-257.22 166,-251.22 170,-257.22 166,-263.22"/>
<text text-anchor="middle" x="185.5" y="-272" font-family="Helvetica,sans-Serif" font-size="10.00"> &#45;entrada</text>
</g>
<!-- Node4 -->
<g id="node4" class="node">
<title>Node4</title>
<g id="a_node4"><a xlink:title=" ">
<polygon fill="white" stroke="#bfbfbf" points="350.5,-160.5 350.5,-217.5 449.5,-217.5 449.5,-160.5 350.5,-160.5"/>
<text text-anchor="middle" x="400" y="-205.5" font-family="Helvetica,sans-Serif" font-size="10.00">ArrayList&lt; String &gt;</text>
<polyline fill="none" stroke="#bfbfbf" points="350.5,-198.5 449.5,-198.5"/>
<text text-anchor="middle" x="400" y="-186.5" font-family="Helvetica,sans-Serif" font-size="10.00"> </text>
<polyline fill="none" stroke="#bfbfbf" points="350.5,-179.5 449.5,-179.5"/>
<text text-anchor="middle" x="400" y="-167.5" font-family="Helvetica,sans-Serif" font-size="10.00"> </text>
</a>
</g>
</g>
<!-- Node4&#45;&gt;Node1 -->
<g id="edge3" class="edge">
<title>Node4&#45;&gt;Node1</title>
<path fill="none" stroke="#404040" d="M378.08,-160.69C361.99,-140.64 339.7,-112.88 320.64,-89.14"/>
<polygon fill="none" stroke="#404040" points="320.77,-89.3 313.9,-87.13 313.26,-79.94 320.14,-82.12 320.77,-89.3"/>
<text text-anchor="middle" x="367" y="-101" font-family="Helvetica,sans-Serif" font-size="10.00"> &#45;listaOpciones</text>
</g>
<!-- Node5 -->
<g id="node5" class="node">
<title>Node5</title>
<g id="a_node5"><a xlink:title=" ">
<polygon fill="white" stroke="#bfbfbf" points="372,-298.5 372,-355.5 428,-355.5 428,-298.5 372,-298.5"/>
<text text-anchor="middle" x="400" y="-343.5" font-family="Helvetica,sans-Serif" font-size="10.00">ArrayList</text>
<polyline fill="none" stroke="#bfbfbf" points="372,-336.5 428,-336.5"/>
<text text-anchor="middle" x="400" y="-324.5" font-family="Helvetica,sans-Serif" font-size="10.00"> </text>
<polyline fill="none" stroke="#bfbfbf" points="372,-317.5 428,-317.5"/>
<text text-anchor="middle" x="400" y="-305.5" font-family="Helvetica,sans-Serif" font-size="10.00"> </text>
</a>
</g>
</g>
<!-- Node5&#45;&gt;Node4 -->
<g id="edge4" class="edge">
<title>Node5&#45;&gt;Node4</title>
<path fill="none" stroke="orange" d="M400,-287.31C400,-264.9 400,-237.24 400,-217.15"/>
<polygon fill="orange" stroke="orange" points="396.5,-287.29 400,-297.29 403.5,-287.29 396.5,-287.29"/>
<text text-anchor="middle" x="423.5" y="-272" font-family="Helvetica,sans-Serif" font-size="10.00"> &lt; String &gt;</text>
</g>
</g>
</svg>
