<?xml version="1.0" encoding="UTF-8" standalone="no"?>
<!DOCTYPE svg PUBLIC "-//W3C//DTD SVG 1.1//EN"
 "http://www.w3.org/Graphics/SVG/1.1/DTD/svg11.dtd">
<!-- Generated by graphviz version 7.1.0 (20230121.1956)
 -->
<!-- Title: jcolonia.daw2022.fichaDeRol.PersonajeFicha Pages: 1 -->
<svg width="902pt" height="391pt"
 viewBox="0.00 0.00 902.00 391.00" xmlns="http://www.w3.org/2000/svg" xmlns:xlink="http://www.w3.org/1999/xlink">
<g id="graph0" class="graph" transform="scale(1 1) rotate(0) translate(4 387)">
<title>jcolonia.daw2022.fichaDeRol.PersonajeFicha</title>
<!-- Node1 -->
<g id="node1" class="node">
<title>Node1</title>
<g id="a_node1"><a xlink:title="Almacena campos de distintos tipos que conformasn la ficha de personaje y gestiona personajes o ficha...">
<polygon fill="#999999" stroke="#666666" points="300.5,-0.5 300.5,-244.5 605.5,-244.5 605.5,-0.5 300.5,-0.5"/>
<text text-anchor="middle" x="453" y="-232.5" font-family="Helvetica,sans-Serif" font-size="10.00">jcolonia.daw2022.fichaDeRol.PersonajeFicha</text>
<polyline fill="none" stroke="#666666" points="300.5,-225.5 605.5,-225.5"/>
<text text-anchor="start" x="308.5" y="-213.5" font-family="Helvetica,sans-Serif" font-size="10.00">&#45; String nombreJugador</text>
<text text-anchor="start" x="308.5" y="-202.5" font-family="Helvetica,sans-Serif" font-size="10.00">&#45; String nombrePersonaje</text>
<polyline fill="none" stroke="#666666" points="300.5,-195.5 605.5,-195.5"/>
<text text-anchor="start" x="308.5" y="-183.5" font-family="Helvetica,sans-Serif" font-size="10.00">+ PersonajeFicha()</text>
<text text-anchor="start" x="308.5" y="-172.5" font-family="Helvetica,sans-Serif" font-size="10.00">+ String toString()</text>
<text text-anchor="start" x="308.5" y="-161.5" font-family="Helvetica,sans-Serif" font-size="10.00">+ String toStringCsv()</text>
<text text-anchor="start" x="308.5" y="-150.5" font-family="Helvetica,sans-Serif" font-size="10.00">+ Equipo importarPersonajeFichaCsvToEquipo()</text>
<text text-anchor="start" x="308.5" y="-139.5" font-family="Helvetica,sans-Serif" font-size="10.00">+ PersonajeFicha importarLineaCsvToPersonajeFicha(String texto)</text>
<text text-anchor="start" x="308.5" y="-128.5" font-family="Helvetica,sans-Serif" font-size="10.00">+ String getNombreJugador()</text>
<text text-anchor="start" x="308.5" y="-117.5" font-family="Helvetica,sans-Serif" font-size="10.00">+ String getNombrePersonaje()</text>
<text text-anchor="start" x="308.5" y="-106.5" font-family="Helvetica,sans-Serif" font-size="10.00">+ RasgoRazas getRaza()</text>
<text text-anchor="start" x="308.5" y="-95.5" font-family="Helvetica,sans-Serif" font-size="10.00">+ RasgoProfesiones getProfesion()</text>
<text text-anchor="start" x="308.5" y="-84.5" font-family="Helvetica,sans-Serif" font-size="10.00">+ RasgoArmaduras getArmadura()</text>
<text text-anchor="start" x="308.5" y="-73.5" font-family="Helvetica,sans-Serif" font-size="10.00">+ RasgoArmas getArma()</text>
<text text-anchor="start" x="308.5" y="-62.5" font-family="Helvetica,sans-Serif" font-size="10.00">+ void setNombrePersonaje(String nombrePersonaje)</text>
<text text-anchor="start" x="308.5" y="-51.5" font-family="Helvetica,sans-Serif" font-size="10.00">+ void setNombreJugador(String nombreJugador)</text>
<text text-anchor="start" x="308.5" y="-40.5" font-family="Helvetica,sans-Serif" font-size="10.00">+ void setRaza(RasgoRazas raza)</text>
<text text-anchor="start" x="308.5" y="-29.5" font-family="Helvetica,sans-Serif" font-size="10.00">+ void setProfesion(RasgoProfesiones profesion)</text>
<text text-anchor="start" x="308.5" y="-18.5" font-family="Helvetica,sans-Serif" font-size="10.00">+ void setArmadura(RasgoArmaduras armadura)</text>
<text text-anchor="start" x="308.5" y="-7.5" font-family="Helvetica,sans-Serif" font-size="10.00">+ void setArma(RasgoArmas arma)</text>
</a>
</g>
</g>
<!-- Node2 -->
<g id="node2" class="node">
<title>Node2</title>
<g id="a_node2"><a xlink:href="enumjcolonia_1_1daw2022_1_1fichaDeRol_1_1RasgoProfesiones.html" target="_top" xlink:title="Enumeracion de las distintas profesiones.">
<polygon fill="white" stroke="#666666" points="0,-292.5 0,-382.5 222,-382.5 222,-292.5 0,-292.5"/>
<text text-anchor="middle" x="111" y="-370.5" font-family="Helvetica,sans-Serif" font-size="10.00">jcolonia.daw2022.fichaDeRol.RasgoProfesiones</text>
<polyline fill="none" stroke="#666666" points="0,-363.5 222,-363.5"/>
<text text-anchor="start" x="8" y="-351.5" font-family="Helvetica,sans-Serif" font-size="10.00">+ Asesino</text>
<text text-anchor="start" x="8" y="-340.5" font-family="Helvetica,sans-Serif" font-size="10.00">+ Sanador</text>
<text text-anchor="start" x="8" y="-329.5" font-family="Helvetica,sans-Serif" font-size="10.00">+ Guerrero</text>
<text text-anchor="start" x="8" y="-318.5" font-family="Helvetica,sans-Serif" font-size="10.00">+ Mago</text>
<polyline fill="none" stroke="#666666" points="0,-311.5 222,-311.5"/>
<text text-anchor="middle" x="111" y="-299.5" font-family="Helvetica,sans-Serif" font-size="10.00"> </text>
</a>
</g>
</g>
<!-- Node2&#45;&gt;Node1 -->
<g id="edge1" class="edge">
<title>Node2&#45;&gt;Node1</title>
<path fill="none" stroke="#404040" d="M181.45,-292.62C213.08,-272.92 251.84,-248.78 290.06,-224.98"/>
<polygon fill="none" stroke="#404040" points="289.87,-225.1 292.85,-218.53 300.06,-218.76 297.08,-225.32 289.87,-225.1"/>
<text text-anchor="middle" x="245" y="-266" font-family="Helvetica,sans-Serif" font-size="10.00"> &#45;profesion</text>
</g>
<!-- Node3 -->
<g id="node3" class="node">
<title>Node3</title>
<g id="a_node3"><a xlink:href="enumjcolonia_1_1daw2022_1_1fichaDeRol_1_1RasgoRazas.html" target="_top" xlink:title="Enumeracion de las distintas razas.">
<polygon fill="white" stroke="#666666" points="240.5,-292.5 240.5,-382.5 439.5,-382.5 439.5,-292.5 240.5,-292.5"/>
<text text-anchor="middle" x="340" y="-370.5" font-family="Helvetica,sans-Serif" font-size="10.00">jcolonia.daw2022.fichaDeRol.RasgoRazas</text>
<polyline fill="none" stroke="#666666" points="240.5,-363.5 439.5,-363.5"/>
<text text-anchor="start" x="248.5" y="-351.5" font-family="Helvetica,sans-Serif" font-size="10.00">+ Orco</text>
<text text-anchor="start" x="248.5" y="-340.5" font-family="Helvetica,sans-Serif" font-size="10.00">+ Elfo</text>
<text text-anchor="start" x="248.5" y="-329.5" font-family="Helvetica,sans-Serif" font-size="10.00">+ Humano</text>
<text text-anchor="start" x="248.5" y="-318.5" font-family="Helvetica,sans-Serif" font-size="10.00">+ Nomuerto</text>
<polyline fill="none" stroke="#666666" points="240.5,-311.5 439.5,-311.5"/>
<text text-anchor="middle" x="340" y="-299.5" font-family="Helvetica,sans-Serif" font-size="10.00"> </text>
</a>
</g>
</g>
<!-- Node3&#45;&gt;Node1 -->
<g id="edge2" class="edge">
<title>Node3&#45;&gt;Node1</title>
<path fill="none" stroke="#404040" d="M363.28,-292.62C369.23,-281.4 375.95,-268.73 382.97,-255.51"/>
<polygon fill="none" stroke="#404040" points="382.87,-255.68 382.15,-248.51 388.5,-245.08 389.22,-252.26 382.87,-255.68"/>
<text text-anchor="middle" x="389.5" y="-266" font-family="Helvetica,sans-Serif" font-size="10.00"> &#45;raza</text>
</g>
<!-- Node4 -->
<g id="node4" class="node">
<title>Node4</title>
<g id="a_node4"><a xlink:href="enumjcolonia_1_1daw2022_1_1fichaDeRol_1_1RasgoArmaduras.html" target="_top" xlink:title="Enumeracion de las distintas armaduras.">
<polygon fill="white" stroke="#666666" points="458,-292.5 458,-382.5 676,-382.5 676,-292.5 458,-292.5"/>
<text text-anchor="middle" x="567" y="-370.5" font-family="Helvetica,sans-Serif" font-size="10.00">jcolonia.daw2022.fichaDeRol.RasgoArmaduras</text>
<polyline fill="none" stroke="#666666" points="458,-363.5 676,-363.5"/>
<text text-anchor="start" x="466" y="-351.5" font-family="Helvetica,sans-Serif" font-size="10.00">+ Tunica</text>
<text text-anchor="start" x="466" y="-340.5" font-family="Helvetica,sans-Serif" font-size="10.00">+ Cuero</text>
<text text-anchor="start" x="466" y="-329.5" font-family="Helvetica,sans-Serif" font-size="10.00">+ Pesada</text>
<text text-anchor="start" x="466" y="-318.5" font-family="Helvetica,sans-Serif" font-size="10.00">+ Amuleto</text>
<polyline fill="none" stroke="#666666" points="458,-311.5 676,-311.5"/>
<text text-anchor="middle" x="567" y="-299.5" font-family="Helvetica,sans-Serif" font-size="10.00"> </text>
</a>
</g>
</g>
<!-- Node4&#45;&gt;Node1 -->
<g id="edge3" class="edge">
<title>Node4&#45;&gt;Node1</title>
<path fill="none" stroke="#404040" d="M543.52,-292.62C537.51,-281.4 530.73,-268.73 523.65,-255.51"/>
<polygon fill="none" stroke="#404040" points="523.73,-255.66 517.38,-252.26 518.07,-245.08 524.43,-248.48 523.73,-255.66"/>
<text text-anchor="middle" x="557.5" y="-266" font-family="Helvetica,sans-Serif" font-size="10.00"> &#45;armadura</text>
</g>
<!-- Node5 -->
<g id="node5" class="node">
<title>Node5</title>
<g id="a_node5"><a xlink:href="enumjcolonia_1_1daw2022_1_1fichaDeRol_1_1RasgoArmas.html" target="_top" xlink:title="Enumeracion de las distintas armas.">
<polygon fill="white" stroke="#666666" points="694,-292.5 694,-382.5 894,-382.5 894,-292.5 694,-292.5"/>
<text text-anchor="middle" x="794" y="-370.5" font-family="Helvetica,sans-Serif" font-size="10.00">jcolonia.daw2022.fichaDeRol.RasgoArmas</text>
<polyline fill="none" stroke="#666666" points="694,-363.5 894,-363.5"/>
<text text-anchor="start" x="702" y="-351.5" font-family="Helvetica,sans-Serif" font-size="10.00">+ Daga</text>
<text text-anchor="start" x="702" y="-340.5" font-family="Helvetica,sans-Serif" font-size="10.00">+ Espada</text>
<text text-anchor="start" x="702" y="-329.5" font-family="Helvetica,sans-Serif" font-size="10.00">+ Hacha</text>
<text text-anchor="start" x="702" y="-318.5" font-family="Helvetica,sans-Serif" font-size="10.00">+ Grimorio</text>
<polyline fill="none" stroke="#666666" points="694,-311.5 894,-311.5"/>
<text text-anchor="middle" x="794" y="-299.5" font-family="Helvetica,sans-Serif" font-size="10.00"> </text>
</a>
</g>
</g>
<!-- Node5&#45;&gt;Node1 -->
<g id="edge4" class="edge">
<title>Node5&#45;&gt;Node1</title>
<path fill="none" stroke="#404040" d="M723.76,-292.62C692.39,-273.03 654.01,-249.06 616.11,-225.38"/>
<polygon fill="none" stroke="#404040" points="616.38,-225.55 609.17,-225.77 606.2,-219.2 613.41,-218.98 616.38,-225.55"/>
<text text-anchor="middle" x="707" y="-266" font-family="Helvetica,sans-Serif" font-size="10.00"> &#45;arma</text>
</g>
</g>
</svg>
