<?xml version="1.0" encoding="UTF-8" standalone="no"?>
<!DOCTYPE svg PUBLIC "-//W3C//DTD SVG 1.1//EN"
 "http://www.w3.org/Graphics/SVG/1.1/DTD/svg11.dtd">
<!-- Generated by graphviz version 7.1.0 (20230121.1956)
 -->
<!-- Title: jcolonia.daw2022.fichaDeRol.VistaListadoTextos Pages: 1 -->
<svg width="309pt" height="287pt"
 viewBox="0.00 0.00 308.50 287.00" xmlns="http://www.w3.org/2000/svg" xmlns:xlink="http://www.w3.org/1999/xlink">
<g id="graph0" class="graph" transform="scale(1 1) rotate(0) translate(4 283)">
<title>jcolonia.daw2022.fichaDeRol.VistaListadoTextos</title>
<!-- Node1 -->
<g id="node1" class="node">
<title>Node1</title>
<g id="a_node1"><a xlink:title="Muestra las fichas de personaje que se han guardado en el equipo principal.">
<polygon fill="#999999" stroke="#666666" points="0,-0.5 0,-68.5 227,-68.5 227,-0.5 0,-0.5"/>
<text text-anchor="middle" x="113.5" y="-56.5" font-family="Helvetica,sans-Serif" font-size="10.00">jcolonia.daw2022.fichaDeRol.VistaListadoTextos</text>
<polyline fill="none" stroke="#666666" points="0,-49.5 227,-49.5"/>
<text text-anchor="middle" x="113.5" y="-37.5" font-family="Helvetica,sans-Serif" font-size="10.00"> </text>
<polyline fill="none" stroke="#666666" points="0,-30.5 227,-30.5"/>
<text text-anchor="start" x="8" y="-18.5" font-family="Helvetica,sans-Serif" font-size="10.00">+ VistaListadoTextos(Equipo listaTextos)</text>
<text text-anchor="start" x="8" y="-7.5" font-family="Helvetica,sans-Serif" font-size="10.00">+ void mostrar()</text>
</a>
</g>
</g>
<!-- Node2 -->
<g id="node2" class="node">
<title>Node2</title>
<g id="a_node2"><a xlink:title=" ">
<polygon fill="white" stroke="#bfbfbf" points="3.5,-116.5 3.5,-173.5 223.5,-173.5 223.5,-116.5 3.5,-116.5"/>
<text text-anchor="middle" x="113.5" y="-161.5" font-family="Helvetica,sans-Serif" font-size="10.00">Vector&lt; jcolonia.daw2022.fichaDeRol.Equipo &gt;</text>
<polyline fill="none" stroke="#bfbfbf" points="3.5,-154.5 223.5,-154.5"/>
<text text-anchor="middle" x="113.5" y="-142.5" font-family="Helvetica,sans-Serif" font-size="10.00"> </text>
<polyline fill="none" stroke="#bfbfbf" points="3.5,-135.5 223.5,-135.5"/>
<text text-anchor="middle" x="113.5" y="-123.5" font-family="Helvetica,sans-Serif" font-size="10.00"> </text>
</a>
</g>
</g>
<!-- Node2&#45;&gt;Node1 -->
<g id="edge1" class="edge">
<title>Node2&#45;&gt;Node1</title>
<path fill="none" stroke="#404040" d="M113.5,-116.62C113.5,-105.83 113.5,-93.15 113.5,-81.06"/>
<polygon fill="none" stroke="#404040" points="113.5,-81.18 109.5,-75.18 113.5,-69.18 117.5,-75.18 113.5,-81.18"/>
<text text-anchor="middle" x="154" y="-90" font-family="Helvetica,sans-Serif" font-size="10.00"> &#45;fichaAlmacenada</text>
</g>
<!-- Node3 -->
<g id="node3" class="node">
<title>Node3</title>
<g id="a_node3"><a xlink:title=" ">
<polygon fill="white" stroke="#bfbfbf" points="91,-221.5 91,-278.5 136,-278.5 136,-221.5 91,-221.5"/>
<text text-anchor="middle" x="113.5" y="-266.5" font-family="Helvetica,sans-Serif" font-size="10.00">Vector</text>
<polyline fill="none" stroke="#bfbfbf" points="91,-259.5 136,-259.5"/>
<text text-anchor="middle" x="113.5" y="-247.5" font-family="Helvetica,sans-Serif" font-size="10.00"> </text>
<polyline fill="none" stroke="#bfbfbf" points="91,-240.5 136,-240.5"/>
<text text-anchor="middle" x="113.5" y="-228.5" font-family="Helvetica,sans-Serif" font-size="10.00"> </text>
</a>
</g>
</g>
<!-- Node3&#45;&gt;Node2 -->
<g id="edge2" class="edge">
<title>Node3&#45;&gt;Node2</title>
<path fill="none" stroke="orange" d="M113.5,-210.33C113.5,-198.06 113.5,-184.77 113.5,-173.46"/>
<polygon fill="orange" stroke="orange" points="110,-210.15 113.5,-220.15 117,-210.15 110,-210.15"/>
<text text-anchor="middle" x="207" y="-195" font-family="Helvetica,sans-Serif" font-size="10.00"> &lt; jcolonia::daw2022::fichaDeRol::Equipo &gt;</text>
</g>
</g>
</svg>
