<?xml version="1.0" encoding="UTF-8" standalone="no"?>
<!DOCTYPE svg PUBLIC "-//W3C//DTD SVG 1.1//EN"
 "http://www.w3.org/Graphics/SVG/1.1/DTD/svg11.dtd">
<!-- Generated by graphviz version 7.1.0 (20230121.1956)
 -->
<!-- Title: jcolonia.daw2022.fichaDeRol.ControlBuclePrincipal Pages: 1 -->
<svg width="376pt" height="513pt"
 viewBox="0.00 0.00 376.00 513.00" xmlns="http://www.w3.org/2000/svg" xmlns:xlink="http://www.w3.org/1999/xlink">
<g id="graph0" class="graph" transform="scale(1 1) rotate(0) translate(4 509)">
<title>jcolonia.daw2022.fichaDeRol.ControlBuclePrincipal</title>
<!-- Node1 -->
<g id="node1" class="node">
<title>Node1</title>
<g id="a_node1"><a xlink:title="Gestiona el bucle principal del que dependen el resto de funcionalidades.">
<polygon fill="#999999" stroke="#666666" points="25,-0.5 25,-134.5 261,-134.5 261,-0.5 25,-0.5"/>
<text text-anchor="middle" x="143" y="-122.5" font-family="Helvetica,sans-Serif" font-size="10.00">jcolonia.daw2022.fichaDeRol.ControlBuclePrincipal</text>
<polyline fill="none" stroke="#666666" points="25,-115.5 261,-115.5"/>
<text text-anchor="start" x="33" y="-103.5" font-family="Helvetica,sans-Serif" font-size="10.00">&#45; final String[] OPCIONES_MENU</text>
<text text-anchor="start" x="33" y="-92.5" font-family="Helvetica,sans-Serif" font-size="10.00">&#45; final String[] RESPUESTAS_SUBTITULO</text>
<polyline fill="none" stroke="#666666" points="25,-85.5 261,-85.5"/>
<text text-anchor="start" x="33" y="-73.5" font-family="Helvetica,sans-Serif" font-size="10.00">+ ControlBuclePrincipal()</text>
<text text-anchor="start" x="33" y="-62.5" font-family="Helvetica,sans-Serif" font-size="10.00">+ static void main(String[] args)</text>
<text text-anchor="start" x="33" y="-51.5" font-family="Helvetica,sans-Serif" font-size="10.00">&#45; void buclePrincipal()</text>
<text text-anchor="start" x="33" y="-40.5" font-family="Helvetica,sans-Serif" font-size="10.00">&#45; void opcionCrearPersonaje()</text>
<text text-anchor="start" x="33" y="-29.5" font-family="Helvetica,sans-Serif" font-size="10.00">&#45; void opciónListadoTextos()</text>
<text text-anchor="start" x="33" y="-18.5" font-family="Helvetica,sans-Serif" font-size="10.00">&#45; void opcionImportarTextos()</text>
<text text-anchor="start" x="33" y="-7.5" font-family="Helvetica,sans-Serif" font-size="10.00">&#45; void opciónExportarTextos()</text>
</a>
</g>
</g>
<!-- Node2 -->
<g id="node2" class="node">
<title>Node2</title>
<g id="a_node2"><a xlink:href="classjcolonia_1_1daw2022_1_1fichaDeRol_1_1Equipo.html" target="_top" xlink:title="Almacena y gestiona una coleccion de fichas de personaje.">
<polygon fill="white" stroke="#666666" points="0,-182.5 0,-294.5 286,-294.5 286,-182.5 0,-182.5"/>
<text text-anchor="middle" x="143" y="-282.5" font-family="Helvetica,sans-Serif" font-size="10.00">jcolonia.daw2022.fichaDeRol.Equipo</text>
<polyline fill="none" stroke="#666666" points="0,-275.5 286,-275.5"/>
<text text-anchor="middle" x="143" y="-263.5" font-family="Helvetica,sans-Serif" font-size="10.00"> </text>
<polyline fill="none" stroke="#666666" points="0,-256.5 286,-256.5"/>
<text text-anchor="start" x="8" y="-244.5" font-family="Helvetica,sans-Serif" font-size="10.00">+ Equipo()</text>
<text text-anchor="start" x="8" y="-233.5" font-family="Helvetica,sans-Serif" font-size="10.00">+ void añadirNuevoPersonaje(PersonajeFicha nuevoPersonaje)</text>
<text text-anchor="start" x="8" y="-222.5" font-family="Helvetica,sans-Serif" font-size="10.00">+ PersonajeFicha consultarPersonajePorNumero(int posicion)</text>
<text text-anchor="start" x="8" y="-211.5" font-family="Helvetica,sans-Serif" font-size="10.00">+ int consultarNumeroDePersonajes()</text>
<text text-anchor="start" x="8" y="-200.5" font-family="Helvetica,sans-Serif" font-size="10.00">+ Vector&lt; String &gt; tipoXToText()</text>
<text text-anchor="start" x="8" y="-189.5" font-family="Helvetica,sans-Serif" font-size="10.00">+ Vector&lt; String &gt; formatearEquipoToCsv()</text>
</a>
</g>
</g>
<!-- Node2&#45;&gt;Node1 -->
<g id="edge1" class="edge">
<title>Node2&#45;&gt;Node1</title>
<path fill="none" stroke="#404040" d="M143,-182.63C143,-171.31 143,-159.17 143,-147.19"/>
<polygon fill="none" stroke="#404040" points="143,-147.19 139,-141.19 143,-135.19 147,-141.19 143,-147.19"/>
<text text-anchor="middle" x="181" y="-156" font-family="Helvetica,sans-Serif" font-size="10.00"> ~equipoPrincipal</text>
</g>
<!-- Node3 -->
<g id="node3" class="node">
<title>Node3</title>
<g id="a_node3"><a xlink:title=" ">
<polygon fill="white" stroke="#bfbfbf" points="14.5,-342.5 14.5,-399.5 271.5,-399.5 271.5,-342.5 14.5,-342.5"/>
<text text-anchor="middle" x="143" y="-387.5" font-family="Helvetica,sans-Serif" font-size="10.00">Vector&lt; jcolonia.daw2022.fichaDeRol.PersonajeFicha &gt;</text>
<polyline fill="none" stroke="#bfbfbf" points="14.5,-380.5 271.5,-380.5"/>
<text text-anchor="middle" x="143" y="-368.5" font-family="Helvetica,sans-Serif" font-size="10.00"> </text>
<polyline fill="none" stroke="#bfbfbf" points="14.5,-361.5 271.5,-361.5"/>
<text text-anchor="middle" x="143" y="-349.5" font-family="Helvetica,sans-Serif" font-size="10.00"> </text>
</a>
</g>
</g>
<!-- Node3&#45;&gt;Node2 -->
<g id="edge2" class="edge">
<title>Node3&#45;&gt;Node2</title>
<path fill="none" stroke="#404040" d="M143,-342.64C143,-332.21 143,-319.81 143,-307.28"/>
<polygon fill="none" stroke="#404040" points="143,-307.16 139,-301.16 143,-295.16 147,-301.16 143,-307.16"/>
<text text-anchor="middle" x="185.5" y="-316" font-family="Helvetica,sans-Serif" font-size="10.00"> &#45;listaDePersonajes</text>
</g>
<!-- Node4 -->
<g id="node4" class="node">
<title>Node4</title>
<g id="a_node4"><a xlink:title=" ">
<polygon fill="white" stroke="#bfbfbf" points="120.5,-447.5 120.5,-504.5 165.5,-504.5 165.5,-447.5 120.5,-447.5"/>
<text text-anchor="middle" x="143" y="-492.5" font-family="Helvetica,sans-Serif" font-size="10.00">Vector</text>
<polyline fill="none" stroke="#bfbfbf" points="120.5,-485.5 165.5,-485.5"/>
<text text-anchor="middle" x="143" y="-473.5" font-family="Helvetica,sans-Serif" font-size="10.00"> </text>
<polyline fill="none" stroke="#bfbfbf" points="120.5,-466.5 165.5,-466.5"/>
<text text-anchor="middle" x="143" y="-454.5" font-family="Helvetica,sans-Serif" font-size="10.00"> </text>
</a>
</g>
</g>
<!-- Node4&#45;&gt;Node3 -->
<g id="edge3" class="edge">
<title>Node4&#45;&gt;Node3</title>
<path fill="none" stroke="orange" d="M143,-436.33C143,-424.06 143,-410.77 143,-399.46"/>
<polygon fill="orange" stroke="orange" points="139.5,-436.15 143,-446.15 146.5,-436.15 139.5,-436.15"/>
<text text-anchor="middle" x="255.5" y="-421" font-family="Helvetica,sans-Serif" font-size="10.00"> &lt; jcolonia::daw2022::fichaDeRol::PersonajeFicha &gt;</text>
</g>
</g>
</svg>
