<?xml version="1.0" encoding="UTF-8" standalone="no"?>
<!DOCTYPE svg PUBLIC "-//W3C//DTD SVG 1.1//EN"
 "http://www.w3.org/Graphics/SVG/1.1/DTD/svg11.dtd">
<!-- Generated by graphviz version 7.1.0 (20230121.1956)
 -->
<!-- Title: jcolonia.daw2022.fichaDeRol.EquipoTest Pages: 1 -->
<svg width="450pt" height="524pt"
 viewBox="0.00 0.00 450.00 524.00" xmlns="http://www.w3.org/2000/svg" xmlns:xlink="http://www.w3.org/1999/xlink">
<g id="graph0" class="graph" transform="scale(1 1) rotate(0) translate(4 520)">
<title>jcolonia.daw2022.fichaDeRol.EquipoTest</title>
<!-- Node1 -->
<g id="node1" class="node">
<title>Node1</title>
<g id="a_node1"><a xlink:title="Comprovamos que se ejecutan correctamente los metodos de la clase Equipo.">
<polygon fill="#999999" stroke="#666666" points="0,-0.5 0,-145.5 434,-145.5 434,-0.5 0,-0.5"/>
<text text-anchor="middle" x="217" y="-133.5" font-family="Helvetica,sans-Serif" font-size="10.00">jcolonia.daw2022.fichaDeRol.EquipoTest</text>
<polyline fill="none" stroke="#666666" points="0,-126.5 434,-126.5"/>
<text text-anchor="middle" x="217" y="-114.5" font-family="Helvetica,sans-Serif" font-size="10.00"> </text>
<polyline fill="none" stroke="#666666" points="0,-107.5 434,-107.5"/>
<text text-anchor="start" x="8" y="-95.5" font-family="Helvetica,sans-Serif" font-size="10.00">~ void setUp()</text>
<text text-anchor="start" x="8" y="-84.5" font-family="Helvetica,sans-Serif" font-size="10.00">~ void tearDown()</text>
<text text-anchor="start" x="8" y="-73.5" font-family="Helvetica,sans-Serif" font-size="10.00">~ void testAñadirNuevoPersonaje()</text>
<text text-anchor="start" x="8" y="-62.5" font-family="Helvetica,sans-Serif" font-size="10.00">~ void testConsultarNumeroDePersonajes()</text>
<text text-anchor="start" x="8" y="-51.5" font-family="Helvetica,sans-Serif" font-size="10.00">~ void testAñadirNuevoPersonaje2()</text>
<text text-anchor="start" x="8" y="-40.5" font-family="Helvetica,sans-Serif" font-size="10.00">~ void testConsultarNumeroDePersonajes2(int numPersonajes)</text>
<text text-anchor="start" x="8" y="-29.5" font-family="Helvetica,sans-Serif" font-size="10.00">~ void testConsultarNumeroDePersonajes3(int numPersonajes, int numPersonajesMalEsperado)</text>
<text text-anchor="start" x="8" y="-18.5" font-family="Helvetica,sans-Serif" font-size="10.00">~ static void setUpBeforeClass()</text>
<text text-anchor="start" x="8" y="-7.5" font-family="Helvetica,sans-Serif" font-size="10.00">~ static void tearDownAfterClass()</text>
</a>
</g>
</g>
<!-- Node2 -->
<g id="node2" class="node">
<title>Node2</title>
<g id="a_node2"><a xlink:href="classjcolonia_1_1daw2022_1_1fichaDeRol_1_1Equipo.html" target="_top" xlink:title="Almacena y gestiona una coleccion de fichas de personaje.">
<polygon fill="white" stroke="#666666" points="74,-193.5 74,-305.5 360,-305.5 360,-193.5 74,-193.5"/>
<text text-anchor="middle" x="217" y="-293.5" font-family="Helvetica,sans-Serif" font-size="10.00">jcolonia.daw2022.fichaDeRol.Equipo</text>
<polyline fill="none" stroke="#666666" points="74,-286.5 360,-286.5"/>
<text text-anchor="middle" x="217" y="-274.5" font-family="Helvetica,sans-Serif" font-size="10.00"> </text>
<polyline fill="none" stroke="#666666" points="74,-267.5 360,-267.5"/>
<text text-anchor="start" x="82" y="-255.5" font-family="Helvetica,sans-Serif" font-size="10.00">+ Equipo()</text>
<text text-anchor="start" x="82" y="-244.5" font-family="Helvetica,sans-Serif" font-size="10.00">+ void añadirNuevoPersonaje(PersonajeFicha nuevoPersonaje)</text>
<text text-anchor="start" x="82" y="-233.5" font-family="Helvetica,sans-Serif" font-size="10.00">+ PersonajeFicha consultarPersonajePorNumero(int posicion)</text>
<text text-anchor="start" x="82" y="-222.5" font-family="Helvetica,sans-Serif" font-size="10.00">+ int consultarNumeroDePersonajes()</text>
<text text-anchor="start" x="82" y="-211.5" font-family="Helvetica,sans-Serif" font-size="10.00">+ Vector&lt; String &gt; tipoXToText()</text>
<text text-anchor="start" x="82" y="-200.5" font-family="Helvetica,sans-Serif" font-size="10.00">+ Vector&lt; String &gt; formatearEquipoToCsv()</text>
</a>
</g>
</g>
<!-- Node2&#45;&gt;Node1 -->
<g id="edge1" class="edge">
<title>Node2&#45;&gt;Node1</title>
<path fill="none" stroke="#404040" d="M217,-193.77C217,-182.46 217,-170.31 217,-158.23"/>
<polygon fill="none" stroke="#404040" points="217,-158.1 213,-152.1 217,-146.1 221,-152.1 217,-158.1"/>
<text text-anchor="middle" x="234.5" y="-167" font-family="Helvetica,sans-Serif" font-size="10.00"> &#45;equipo</text>
</g>
<!-- Node3 -->
<g id="node3" class="node">
<title>Node3</title>
<g id="a_node3"><a xlink:title=" ">
<polygon fill="white" stroke="#bfbfbf" points="88.5,-353.5 88.5,-410.5 345.5,-410.5 345.5,-353.5 88.5,-353.5"/>
<text text-anchor="middle" x="217" y="-398.5" font-family="Helvetica,sans-Serif" font-size="10.00">Vector&lt; jcolonia.daw2022.fichaDeRol.PersonajeFicha &gt;</text>
<polyline fill="none" stroke="#bfbfbf" points="88.5,-391.5 345.5,-391.5"/>
<text text-anchor="middle" x="217" y="-379.5" font-family="Helvetica,sans-Serif" font-size="10.00"> </text>
<polyline fill="none" stroke="#bfbfbf" points="88.5,-372.5 345.5,-372.5"/>
<text text-anchor="middle" x="217" y="-360.5" font-family="Helvetica,sans-Serif" font-size="10.00"> </text>
</a>
</g>
</g>
<!-- Node3&#45;&gt;Node2 -->
<g id="edge2" class="edge">
<title>Node3&#45;&gt;Node2</title>
<path fill="none" stroke="#404040" d="M217,-353.64C217,-343.21 217,-330.81 217,-318.28"/>
<polygon fill="none" stroke="#404040" points="217,-318.16 213,-312.16 217,-306.16 221,-312.16 217,-318.16"/>
<text text-anchor="middle" x="259.5" y="-327" font-family="Helvetica,sans-Serif" font-size="10.00"> &#45;listaDePersonajes</text>
</g>
<!-- Node4 -->
<g id="node4" class="node">
<title>Node4</title>
<g id="a_node4"><a xlink:title=" ">
<polygon fill="white" stroke="#bfbfbf" points="194.5,-458.5 194.5,-515.5 239.5,-515.5 239.5,-458.5 194.5,-458.5"/>
<text text-anchor="middle" x="217" y="-503.5" font-family="Helvetica,sans-Serif" font-size="10.00">Vector</text>
<polyline fill="none" stroke="#bfbfbf" points="194.5,-496.5 239.5,-496.5"/>
<text text-anchor="middle" x="217" y="-484.5" font-family="Helvetica,sans-Serif" font-size="10.00"> </text>
<polyline fill="none" stroke="#bfbfbf" points="194.5,-477.5 239.5,-477.5"/>
<text text-anchor="middle" x="217" y="-465.5" font-family="Helvetica,sans-Serif" font-size="10.00"> </text>
</a>
</g>
</g>
<!-- Node4&#45;&gt;Node3 -->
<g id="edge3" class="edge">
<title>Node4&#45;&gt;Node3</title>
<path fill="none" stroke="orange" d="M217,-447.33C217,-435.06 217,-421.77 217,-410.46"/>
<polygon fill="orange" stroke="orange" points="213.5,-447.15 217,-457.15 220.5,-447.15 213.5,-447.15"/>
<text text-anchor="middle" x="329.5" y="-432" font-family="Helvetica,sans-Serif" font-size="10.00"> &lt; jcolonia::daw2022::fichaDeRol::PersonajeFicha &gt;</text>
</g>
</g>
</svg>
