<?xml version="1.0" encoding="UTF-8" standalone="no"?>
<!DOCTYPE svg PUBLIC "-//W3C//DTD SVG 1.1//EN"
 "http://www.w3.org/Graphics/SVG/1.1/DTD/svg11.dtd">
<!-- Generated by graphviz version 7.1.0 (20230121.1956)
 -->
<!-- Title: jcolonia.daw2022.fichaDeRol.Equipo Pages: 1 -->
<svg width="376pt" height="331pt"
 viewBox="0.00 0.00 376.00 331.00" xmlns="http://www.w3.org/2000/svg" xmlns:xlink="http://www.w3.org/1999/xlink">
<g id="graph0" class="graph" transform="scale(1 1) rotate(0) translate(4 327)">
<title>jcolonia.daw2022.fichaDeRol.Equipo</title>
<!-- Node1 -->
<g id="node1" class="node">
<title>Node1</title>
<g id="a_node1"><a xlink:title="Almacena y gestiona una coleccion de fichas de personaje.">
<polygon fill="#999999" stroke="#666666" points="0,-0.5 0,-112.5 286,-112.5 286,-0.5 0,-0.5"/>
<text text-anchor="middle" x="143" y="-100.5" font-family="Helvetica,sans-Serif" font-size="10.00">jcolonia.daw2022.fichaDeRol.Equipo</text>
<polyline fill="none" stroke="#666666" points="0,-93.5 286,-93.5"/>
<text text-anchor="middle" x="143" y="-81.5" font-family="Helvetica,sans-Serif" font-size="10.00"> </text>
<polyline fill="none" stroke="#666666" points="0,-74.5 286,-74.5"/>
<text text-anchor="start" x="8" y="-62.5" font-family="Helvetica,sans-Serif" font-size="10.00">+ Equipo()</text>
<text text-anchor="start" x="8" y="-51.5" font-family="Helvetica,sans-Serif" font-size="10.00">+ void añadirNuevoPersonaje(PersonajeFicha nuevoPersonaje)</text>
<text text-anchor="start" x="8" y="-40.5" font-family="Helvetica,sans-Serif" font-size="10.00">+ PersonajeFicha consultarPersonajePorNumero(int posicion)</text>
<text text-anchor="start" x="8" y="-29.5" font-family="Helvetica,sans-Serif" font-size="10.00">+ int consultarNumeroDePersonajes()</text>
<text text-anchor="start" x="8" y="-18.5" font-family="Helvetica,sans-Serif" font-size="10.00">+ Vector&lt; String &gt; tipoXToText()</text>
<text text-anchor="start" x="8" y="-7.5" font-family="Helvetica,sans-Serif" font-size="10.00">+ Vector&lt; String &gt; formatearEquipoToCsv()</text>
</a>
</g>
</g>
<!-- Node2 -->
<g id="node2" class="node">
<title>Node2</title>
<g id="a_node2"><a xlink:title=" ">
<polygon fill="white" stroke="#bfbfbf" points="14.5,-160.5 14.5,-217.5 271.5,-217.5 271.5,-160.5 14.5,-160.5"/>
<text text-anchor="middle" x="143" y="-205.5" font-family="Helvetica,sans-Serif" font-size="10.00">Vector&lt; jcolonia.daw2022.fichaDeRol.PersonajeFicha &gt;</text>
<polyline fill="none" stroke="#bfbfbf" points="14.5,-198.5 271.5,-198.5"/>
<text text-anchor="middle" x="143" y="-186.5" font-family="Helvetica,sans-Serif" font-size="10.00"> </text>
<polyline fill="none" stroke="#bfbfbf" points="14.5,-179.5 271.5,-179.5"/>
<text text-anchor="middle" x="143" y="-167.5" font-family="Helvetica,sans-Serif" font-size="10.00"> </text>
</a>
</g>
</g>
<!-- Node2&#45;&gt;Node1 -->
<g id="edge1" class="edge">
<title>Node2&#45;&gt;Node1</title>
<path fill="none" stroke="#404040" d="M143,-160.64C143,-150.21 143,-137.81 143,-125.28"/>
<polygon fill="none" stroke="#404040" points="143,-125.16 139,-119.16 143,-113.16 147,-119.16 143,-125.16"/>
<text text-anchor="middle" x="185.5" y="-134" font-family="Helvetica,sans-Serif" font-size="10.00"> &#45;listaDePersonajes</text>
</g>
<!-- Node3 -->
<g id="node3" class="node">
<title>Node3</title>
<g id="a_node3"><a xlink:title=" ">
<polygon fill="white" stroke="#bfbfbf" points="120.5,-265.5 120.5,-322.5 165.5,-322.5 165.5,-265.5 120.5,-265.5"/>
<text text-anchor="middle" x="143" y="-310.5" font-family="Helvetica,sans-Serif" font-size="10.00">Vector</text>
<polyline fill="none" stroke="#bfbfbf" points="120.5,-303.5 165.5,-303.5"/>
<text text-anchor="middle" x="143" y="-291.5" font-family="Helvetica,sans-Serif" font-size="10.00"> </text>
<polyline fill="none" stroke="#bfbfbf" points="120.5,-284.5 165.5,-284.5"/>
<text text-anchor="middle" x="143" y="-272.5" font-family="Helvetica,sans-Serif" font-size="10.00"> </text>
</a>
</g>
</g>
<!-- Node3&#45;&gt;Node2 -->
<g id="edge2" class="edge">
<title>Node3&#45;&gt;Node2</title>
<path fill="none" stroke="orange" d="M143,-254.33C143,-242.06 143,-228.77 143,-217.46"/>
<polygon fill="orange" stroke="orange" points="139.5,-254.15 143,-264.15 146.5,-254.15 139.5,-254.15"/>
<text text-anchor="middle" x="255.5" y="-239" font-family="Helvetica,sans-Serif" font-size="10.00"> &lt; jcolonia::daw2022::fichaDeRol::PersonajeFicha &gt;</text>
</g>
</g>
</svg>
