<?xml version="1.0" encoding="UTF-8" standalone="no"?>
<!DOCTYPE svg PUBLIC "-//W3C//DTD SVG 1.1//EN"
 "http://www.w3.org/Graphics/SVG/1.1/DTD/svg11.dtd">
<!-- Generated by graphviz version 7.1.0 (20230121.1956)
 -->
<!-- Title: Representaci칩n gr치fica de la clase Pages: 1 -->
<svg width="434pt" height="64pt"
 viewBox="0.00 0.00 434.00 64.00" xmlns="http://www.w3.org/2000/svg" xmlns:xlink="http://www.w3.org/1999/xlink">
<g id="graph0" class="graph" transform="scale(1 1) rotate(0) translate(4 60)">
<title>Representaci칩n gr치fica de la clase</title>
<!-- Node0 -->
<g id="node1" class="node">
<title>Node0</title>
<g id="a_node1"><a xlink:href="classjcolonia_1_1daw2022_1_1fichaDeRol_1_1VistaGeneral.html" target="_top" xlink:title="Gestiona la entrada y salida de informacion por consola.">
<polygon fill="white" stroke="#666666" points="200,-37 0,-37 0,-18 200,-18 200,-37"/>
<text text-anchor="middle" x="100" y="-25" font-family="Helvetica,sans-Serif" font-size="10.00">jcolonia.daw2022.fichaDeRol.VistaGeneral</text>
</a>
</g>
</g>
<!-- Node1 -->
<g id="node2" class="node">
<title>Node1</title>
<g id="a_node2"><a xlink:href="classjcolonia_1_1daw2022_1_1fichaDeRol_1_1VistaAltas.html" target="_top" xlink:title="Pide al usuario informacin para que rellenar una serie de campos de una ficha de personaje.">
<polygon fill="white" stroke="#666666" points="425,-56 237,-56 237,-37 425,-37 425,-56"/>
<text text-anchor="middle" x="331" y="-44" font-family="Helvetica,sans-Serif" font-size="10.00">jcolonia.daw2022.fichaDeRol.VistaAltas</text>
</a>
</g>
</g>
<!-- Node0&#45;&gt;Node1 -->
<g id="edge1" class="edge">
<title>Node0&#45;&gt;Node1</title>
<path fill="none" stroke="#63b8ff" d="M211.81,-36.69C220.17,-37.39 228.55,-38.08 236.79,-38.77"/>
<polygon fill="#63b8ff" stroke="#63b8ff" points="212.21,-33.21 201.95,-35.88 211.63,-40.19 212.21,-33.21"/>
</g>
<!-- Node2 -->
<g id="node3" class="node">
<title>Node2</title>
<g id="a_node3"><a xlink:href="classjcolonia_1_1daw2022_1_1fichaDeRol_1_1VistaMenu.html" target="_top" xlink:title="Gestiona el menu principal.">
<polygon fill="white" stroke="#666666" points="426,-19 236,-19 236,0 426,0 426,-19"/>
<text text-anchor="middle" x="331" y="-7" font-family="Helvetica,sans-Serif" font-size="10.00">jcolonia.daw2022.fichaDeRol.VistaMenu</text>
</a>
</g>
</g>
<!-- Node0&#45;&gt;Node2 -->
<g id="edge2" class="edge">
<title>Node0&#45;&gt;Node2</title>
<path fill="none" stroke="#63b8ff" d="M211.74,-18.8C219.76,-18.17 227.8,-17.53 235.71,-16.91"/>
<polygon fill="#63b8ff" stroke="#63b8ff" points="211.65,-15.29 201.95,-19.56 212.2,-22.27 211.65,-15.29"/>
</g>
</g>
</svg>
